# This file uses centimeters as units for non-parametric coordinates.

mtllib Atico2.mtl
g default
v -4121.330566 578.074036 -389.170532
v -4171.330566 578.074036 -389.170532
v -4121.330566 1350.091675 -389.170532
v -4171.331055 1350.091675 -389.170532
v -4121.330566 1350.091675 163.399765
v -4171.331055 1350.091675 163.399765
v -4121.330566 578.074036 313.739563
v -4171.331055 578.074036 313.739563
vt 0.375000 0.000000
vt 0.625000 0.000000
vt 0.625000 0.250000
vt 0.375000 0.250000
vt 0.875000 0.000000
vt 0.875000 0.250000
vt 0.125000 0.000000
vt 0.125000 0.250000
vn 0.000000 0.000000 -1.000000
vn 0.000000 0.000000 -1.000000
vn 0.000000 0.000000 -1.000000
vn 0.000000 0.000000 -1.000000
vn -1.000000 0.000000 -0.000000
vn -1.000000 0.000000 -0.000000
vn -1.000000 0.000000 -0.000000
vn -1.000000 0.000000 -0.000000
vn 1.000000 0.000000 0.000000
vn 1.000000 0.000000 0.000000
vn 1.000000 0.000000 0.000000
vn 1.000000 0.000000 0.000000
s off
g AticoPared_izq Atico2 Casa
usemtl Atico:initialShadingGroup
f 1/1/1 2/2/2 4/3/3 3/4/4
f 2/2/5 8/5/6 6/6/7 4/3/8
f 7/7/9 1/1/10 3/4/11 5/8/12
g default
v -4121.665527 528.074036 -389.170532
v -6123.838379 528.074036 -389.170532
v -4121.665527 578.074036 -389.170532
v -6123.838379 578.074036 -389.170532
v -4121.665527 578.074036 389.170685
v -6123.838379 578.074036 389.170685
v -4121.665527 528.074036 389.170685
v -6123.838379 528.074036 389.170685
vt 0.375000 0.000000
vt 0.625000 0.000000
vt 0.625000 0.250000
vt 0.375000 0.250000
vt 0.625000 0.500000
vt 0.375000 0.500000
vt 0.625000 0.750000
vt 0.375000 0.750000
vt 0.625000 1.000000
vt 0.375000 1.000000
vt 0.875000 0.000000
vt 0.875000 0.250000
vn 0.000000 0.000000 -1.000000
vn 0.000000 0.000000 -1.000000
vn 0.000000 0.000000 -1.000000
vn 0.000000 0.000000 -1.000000
vn 0.000000 1.000000 -0.000000
vn 0.000000 1.000000 -0.000000
vn 0.000000 1.000000 -0.000000
vn 0.000000 1.000000 -0.000000
vn -0.000000 0.000000 1.000000
vn -0.000000 0.000000 1.000000
vn -0.000000 0.000000 1.000000
vn -0.000000 0.000000 1.000000
vn 0.000000 -1.000000 0.000000
vn 0.000000 -1.000000 0.000000
vn 0.000000 -1.000000 0.000000
vn 0.000000 -1.000000 0.000000
vn -1.000000 0.000000 -0.000000
vn -1.000000 0.000000 -0.000000
vn -1.000000 0.000000 -0.000000
vn -1.000000 0.000000 -0.000000
s off
g Atico2 Casa AticoSuelo
usemtl Atico:initialShadingGroup
f 9/9/13 10/10/14 12/11/15 11/12/16
f 11/12/17 12/11/18 14/13/19 13/14/20
f 13/14/21 14/13/22 16/15/23 15/16/24
f 15/16/25 16/15/26 10/17/27 9/18/28
f 10/10/29 16/19/30 14/20/31 12/11/32
g default
v -4630.781738 578.074036 281.962952
v -4662.548340 578.074036 281.962952
v -4662.548340 1350.091553 131.623260
v -4630.781738 1350.091553 131.623260
v -4630.781738 578.074036 313.739563
v -4662.548340 578.074036 313.739563
v -4662.548340 1350.091553 163.399765
v -4630.781738 1350.091553 163.399765
vt 0.531250 0.250000
vt 0.562500 0.250000
vt 0.562500 0.500000
vt 0.531250 0.500000
vt 0.531250 0.250000
vt 0.562500 0.250000
vt 0.562500 0.500000
vt 0.531250 0.500000
vn 0.000000 -0.191146 -0.981562
vn 0.000000 -0.191146 -0.981562
vn 0.000000 -0.191146 -0.981562
vn 0.000000 -0.191146 -0.981562
vn 0.000000 -1.000000 0.000000
vn 0.000000 -1.000000 0.000000
vn 0.000000 -1.000000 0.000000
vn 0.000000 -1.000000 0.000000
vn -1.000000 0.000000 -0.000000
vn -1.000000 0.000000 -0.000000
vn -1.000000 0.000000 -0.000000
vn -1.000000 0.000000 -0.000000
vn 0.000000 1.000000 -0.000000
vn 0.000000 1.000000 -0.000000
vn 0.000000 1.000000 -0.000000
vn 0.000000 1.000000 -0.000000
vn 1.000000 0.000000 0.000000
vn 1.000000 0.000000 0.000000
vn 1.000000 0.000000 0.000000
vn 1.000000 0.000000 0.000000
s off
g Atico2 Casa SoporteVertical_1 SoportesPared
usemtl Atico:initialShadingGroup
f 17/21/33 18/22/34 19/23/35 20/24/36
f 21/25/37 22/26/38 18/22/39 17/21/40
f 22/26/41 23/27/42 19/23/43 18/22/44
f 23/27/45 24/28/46 20/24/47 19/23/48
f 20/24/49 24/28/50 21/25/51 17/21/52
g default
v -5621.665039 964.082764 219.361465
v -5621.665039 867.580627 238.154068
v -4871.664551 964.082764 219.361465
v -4871.664551 867.580627 238.154068
v -3870.842285 964.082764 219.361465
v -3870.842285 867.580627 238.154068
v -6073.839844 964.082764 219.361465
v -6073.839844 867.580627 238.154068
v -5621.665039 964.082764 239.514297
v -4871.664551 964.082764 239.514297
v -4871.664551 867.580627 258.306763
v -5621.665039 867.580627 258.306763
v -3870.842285 964.082764 273.194855
v -3870.842285 867.580627 291.987457
v -6073.839844 964.082764 239.514297
v -6073.839844 867.580627 258.306763
vt 0.437500 0.343750
vt 0.437500 0.375000
vt 0.406250 0.375000
vt 0.406250 0.343750
vt 0.375000 0.375000
vt 0.375000 0.343750
vt 0.468750 0.375000
vt 0.468750 0.343750
vt 0.437500 0.375000
vt 0.406250 0.375000
vt 0.406250 0.343750
vt 0.437500 0.343750
vt 0.375000 0.375000
vt 0.375000 0.343750
vt 0.468750 0.375000
vt 0.468750 0.343750
vn 0.000000 -0.191147 -0.981561
vn 0.000000 -0.191147 -0.981561
vn 0.000000 -0.191147 -0.981561
vn 0.000000 -0.191147 -0.981561
vn 0.000000 -0.191146 -0.981562
vn 0.000000 -0.191146 -0.981562
vn 0.000000 -0.191146 -0.981562
vn 0.000000 -0.191146 -0.981562
vn 0.000000 -0.191146 -0.981562
vn 0.000000 -0.191146 -0.981562
vn 0.000000 -0.191146 -0.981562
vn 0.000000 -0.191146 -0.981562
vn 0.000000 1.000000 -0.000000
vn 0.000000 1.000000 -0.000000
vn 0.000000 1.000000 -0.000000
vn 0.000000 1.000000 -0.000000
vn 0.000000 -1.000000 0.000000
vn 0.000000 -1.000000 0.000000
vn 0.000000 -1.000000 0.000000
vn 0.000000 -1.000000 0.000000
vn 0.000000 1.000000 -0.000000
vn 0.000000 1.000000 -0.000000
vn 0.000000 1.000000 -0.000000
vn 0.000000 1.000000 -0.000000
vn 0.000000 -1.000000 0.000000
vn 0.000000 -1.000000 0.000000
vn 0.000000 -1.000000 0.000000
vn 0.000000 -1.000000 0.000000
vn 0.000000 1.000000 -0.000000
vn 0.000000 1.000000 -0.000000
vn 0.000000 1.000000 -0.000000
vn 0.000000 1.000000 -0.000000
vn 0.000000 -1.000000 0.000000
vn 0.000000 -1.000000 0.000000
vn 0.000000 -1.000000 0.000000
vn 0.000000 -1.000000 0.000000
s off
g Atico2 Casa SoportesPared SoporteHorizontal_1
usemtl Atico:initialShadingGroup
f 26/29/53 25/30/54 27/31/55 28/32/56
f 27/31/57 29/33/58 30/34/59 28/32/60
f 31/35/61 25/30/62 26/29/63 32/36/64
f 33/37/65 34/38/66 27/31/67 25/30/68
f 35/39/69 36/40/70 26/29/71 28/32/72
f 34/38/73 37/41/74 29/33/75 27/31/76
f 38/42/77 35/39/78 28/32/79 30/34/80
f 39/43/81 33/37/82 25/30/83 31/35/84
f 36/40/85 40/44/86 32/36/87 26/29/88
g default
v -4360.142090 1351.224121 -203.465210
v -4433.923340 1351.224121 -203.465210
v -4360.142090 1351.160522 -101.427834
v -4433.923340 1351.160522 -101.427834
v -4360.142090 1137.650635 102.285370
v -4433.923340 1137.650635 102.285370
v -4360.142090 1002.936646 128.841370
v -4433.923340 1002.936646 128.841370
vt 0.375000 0.000000
vt 0.625000 0.000000
vt 0.625000 0.250000
vt 0.375000 0.250000
vt 0.625000 0.500000
vt 0.375000 0.500000
vt 0.625000 0.750000
vt 0.375000 0.750000
vt 0.625000 1.000000
vt 0.375000 1.000000
vt 0.875000 0.000000
vt 0.875000 0.250000
vt 0.125000 0.000000
vt 0.125000 0.250000
vn -0.000000 0.690313 0.723511
vn -0.000000 0.690313 0.723511
vn -0.000000 0.690313 0.723511
vn -0.000000 0.690313 0.723511
vn 0.000000 -0.690313 -0.723511
vn 0.000000 -0.690313 -0.723511
vn 0.000000 -0.690313 -0.723511
vn 0.000000 -0.690313 -0.723511
vn -1.000000 0.000000 -0.000000
vn -1.000000 0.000000 -0.000000
vn -1.000000 0.000000 -0.000000
vn -1.000000 0.000000 -0.000000
vn 1.000000 0.000000 0.000000
vn 1.000000 0.000000 0.000000
vn 1.000000 0.000000 0.000000
vn 1.000000 0.000000 0.000000
s off
g Atico2 Casa SoportesPared SoporteTecho2_2
usemtl Atico:initialShadingGroup
f 43/48/89 44/47/90 46/49/91 45/50/92
f 47/52/93 48/51/94 42/53/95 41/54/96
f 42/46/97 48/55/98 46/56/99 44/47/100
f 47/57/101 41/45/102 43/48/103 45/58/104
g default
v -4341.317871 578.074036 211.206589
v -4460.444824 578.074036 211.206589
v -4460.444824 1350.091553 60.866875
v -4341.317871 1350.091553 60.866875
v -4341.317871 578.074036 313.739563
v -4460.444824 578.074036 313.739563
v -4460.444824 1350.091553 163.399765
v -4341.317871 1350.091553 163.399765
vt 0.531250 0.250000
vt 0.562500 0.250000
vt 0.562500 0.500000
vt 0.531250 0.500000
vt 0.531250 0.250000
vt 0.562500 0.250000
vt 0.562500 0.500000
vt 0.531250 0.500000
vn 0.000000 -0.191145 -0.981562
vn 0.000000 -0.191145 -0.981562
vn 0.000000 -0.191145 -0.981562
vn 0.000000 -0.191145 -0.981562
vn -1.000000 0.000000 -0.000000
vn -1.000000 0.000000 -0.000000
vn -1.000000 0.000000 -0.000000
vn -1.000000 0.000000 -0.000000
vn 1.000000 0.000000 0.000000
vn 1.000000 0.000000 0.000000
vn 1.000000 0.000000 0.000000
vn 1.000000 0.000000 0.000000
s off
g Atico2 Casa SoportesPared SoporteTecho2_1
usemtl Atico:initialShadingGroup
f 49/59/105 50/60/106 51/61/107 52/62/108
f 54/64/109 55/65/110 51/61/111 50/60/112
f 52/62/113 56/66/114 53/63/115 49/59/116
g default
v -3870.842041 578.074036 281.962952
v -3902.609619 578.074036 281.962952
v -3902.609619 1350.091553 131.623260
v -3870.842041 1350.091553 131.623260
v -3870.842041 578.074036 313.739563
v -3902.609619 578.074036 313.739563
v -3902.609619 1350.091553 163.399765
v -3870.842041 1350.091553 163.399765
vt 0.531250 0.250000
vt 0.562500 0.250000
vt 0.562500 0.500000
vt 0.531250 0.500000
vt 0.531250 0.250000
vt 0.562500 0.250000
vt 0.562500 0.500000
vt 0.531250 0.500000
vn 0.000000 -0.191146 -0.981562
vn 0.000000 -0.191146 -0.981562
vn 0.000000 -0.191146 -0.981562
vn 0.000000 -0.191146 -0.981562
vn 0.000000 -1.000000 0.000000
vn 0.000000 -1.000000 0.000000
vn 0.000000 -1.000000 0.000000
vn 0.000000 -1.000000 0.000000
vn -1.000000 0.000000 -0.000000
vn -1.000000 0.000000 -0.000000
vn -1.000000 0.000000 -0.000000
vn -1.000000 0.000000 -0.000000
vn 0.000000 1.000000 -0.000000
vn 0.000000 1.000000 -0.000000
vn 0.000000 1.000000 -0.000000
vn 0.000000 1.000000 -0.000000
vn 1.000000 0.000000 0.000000
vn 1.000000 0.000000 0.000000
vn 1.000000 0.000000 0.000000
vn 1.000000 0.000000 0.000000
s off
g Atico2 Casa SoportesPared SoporteVertical_10
usemtl Atico:initialShadingGroup
f 57/67/117 58/68/118 59/69/119 60/70/120
f 61/71/121 62/72/122 58/68/123 57/67/124
f 62/72/125 63/73/126 59/69/127 58/68/128
f 63/73/129 64/74/130 60/70/131 59/69/132
f 60/70/133 64/74/134 61/71/135 57/67/136
g default
v -4089.898193 578.074036 281.962952
v -4121.665527 578.074036 281.962952
v -4121.665527 1350.091553 131.623260
v -4089.898193 1350.091553 131.623260
v -4089.898193 578.074036 313.739563
v -4121.665527 578.074036 313.739563
v -4121.665527 1350.091553 163.399765
v -4089.898193 1350.091553 163.399765
vt 0.531250 0.250000
vt 0.562500 0.250000
vt 0.562500 0.500000
vt 0.531250 0.500000
vt 0.531250 0.250000
vt 0.562500 0.250000
vt 0.562500 0.500000
vt 0.531250 0.500000
vn 0.000000 -0.191146 -0.981562
vn 0.000000 -0.191146 -0.981562
vn 0.000000 -0.191146 -0.981562
vn 0.000000 -0.191146 -0.981562
vn 0.000000 -1.000000 0.000000
vn 0.000000 -1.000000 0.000000
vn 0.000000 -1.000000 0.000000
vn 0.000000 -1.000000 0.000000
vn -1.000000 0.000000 -0.000000
vn -1.000000 0.000000 -0.000000
vn -1.000000 0.000000 -0.000000
vn -1.000000 0.000000 -0.000000
vn 0.000000 1.000000 -0.000000
vn 0.000000 1.000000 -0.000000
vn 0.000000 1.000000 -0.000000
vn 0.000000 1.000000 -0.000000
vn 1.000000 0.000000 0.000000
vn 1.000000 0.000000 0.000000
vn 1.000000 0.000000 0.000000
vn 1.000000 0.000000 0.000000
s off
g Atico2 Casa SoportesPared SoporteVertical_11
usemtl Atico:initialShadingGroup
f 65/75/137 66/76/138 67/77/139 68/78/140
f 69/79/141 70/80/142 66/76/143 65/75/144
f 70/80/145 71/81/146 67/77/147 66/76/148
f 71/81/149 72/82/150 68/78/151 67/77/152
f 68/78/153 72/82/154 69/79/155 65/75/156
g default
v -6073.839844 578.074036 -389.170532
v -6123.839844 578.074036 -389.170532
v -6073.840332 1350.091675 -389.170532
v -6123.840332 1350.091675 -389.170532
v -6073.839844 1350.091675 163.399765
v -6123.840332 1350.091675 163.399765
v -6073.840332 578.074036 313.739563
v -6123.840332 578.074036 313.739563
vt 0.375000 0.000000
vt 0.625000 0.000000
vt 0.625000 0.250000
vt 0.375000 0.250000
vt 0.875000 0.000000
vt 0.875000 0.250000
vt 0.125000 0.000000
vt 0.125000 0.250000
vn 0.000000 0.000000 -1.000000
vn 0.000000 0.000000 -1.000000
vn 0.000000 0.000000 -1.000000
vn 0.000000 0.000000 -1.000000
vn -1.000000 0.000000 -0.000000
vn -1.000000 0.000000 -0.000000
vn -1.000000 0.000000 -0.000000
vn -1.000000 0.000000 -0.000000
vn 1.000000 0.000000 0.000000
vn 1.000000 0.000000 0.000000
vn 1.000000 0.000000 0.000000
vn 1.000000 0.000000 0.000000
s off
g Atico2 Casa AticoPared_izq1
usemtl Atico:initialShadingGroup
f 73/83/157 74/84/158 76/85/159 75/86/160
f 74/84/161 80/87/162 78/88/163 76/85/164
f 79/89/165 73/83/166 75/86/167 77/90/168
g default
v -6123.839355 578.124390 313.998444
v -6123.839355 1350.138794 163.654465
v -3870.842041 578.124390 313.998444
v -3870.842041 1350.138794 163.654465
v -3870.842041 578.124390 389.170776
v -3870.842041 1350.141113 238.826202
v -6123.839355 578.124390 389.170776
v -6123.839355 1350.141113 238.826202
vt 0.875000 1.000000
vt 0.875000 0.000000
vt 1.000000 0.000000
vt 1.000000 1.000000
vt 0.500000 1.000000
vt 0.500000 1.000000
vt 0.500000 1.000000
vt 0.000000 0.000000
vt 1.000000 0.000000
vt 0.500000 1.000000
vn 0.000000 -0.191152 -0.981560
vn 0.000000 -0.191152 -0.981560
vn 0.000000 -0.191152 -0.981560
vn 0.000000 -0.191152 -0.981560
vn -1.000000 0.000000 -0.000000
vn -1.000000 0.000000 -0.000000
vn -1.000000 0.000000 -0.000000
vn -1.000000 0.000000 -0.000000
vn -0.000000 0.191152 0.981560
vn -0.000000 0.191152 0.981560
vn -0.000000 0.191152 0.981560
vn -0.000000 0.191152 0.981560
s off
g Atico2 Casa ParedAtico2
usemtl Atico:initialShadingGroup
f 84/91/169 83/92/170 81/93/171 82/94/172
f 82/98/173 81/99/174 87/97/175 88/100/176
f 87/97/177 85/95/178 86/96/179 88/100/180
g default
v -3870.842285 1350.091675 -389.170532
v -6123.840332 1350.091675 -389.170532
v -3870.842285 1400.410400 -389.170532
v -6123.840332 1400.410400 -389.170532
v -3870.842285 1400.410400 238.826202
v -6123.840332 1400.410400 238.826202
v -3870.842285 1350.091675 238.826202
v -6123.840332 1350.091675 238.826202
vt 0.375000 0.000000
vt 0.625000 0.000000
vt 0.625000 0.250000
vt 0.375000 0.250000
vt 0.625000 0.500000
vt 0.375000 0.500000
vt 0.625000 0.750000
vt 0.375000 0.750000
vt 0.625000 1.000000
vt 0.375000 1.000000
vt 0.875000 0.000000
vt 0.875000 0.250000
vt 0.125000 0.000000
vt 0.125000 0.250000
vn 0.000000 0.000000 -1.000000
vn 0.000000 0.000000 -1.000000
vn 0.000000 0.000000 -1.000000
vn 0.000000 0.000000 -1.000000
vn 0.000000 1.000000 -0.000000
vn 0.000000 1.000000 -0.000000
vn 0.000000 1.000000 -0.000000
vn 0.000000 1.000000 -0.000000
vn -0.000000 0.000000 1.000000
vn -0.000000 0.000000 1.000000
vn -0.000000 0.000000 1.000000
vn -0.000000 0.000000 1.000000
vn 0.000000 -1.000000 0.000000
vn 0.000000 -1.000000 0.000000
vn 0.000000 -1.000000 0.000000
vn 0.000000 -1.000000 0.000000
vn -1.000000 0.000000 -0.000000
vn -1.000000 0.000000 -0.000000
vn -1.000000 0.000000 -0.000000
vn -1.000000 0.000000 -0.000000
vn 1.000000 0.000000 0.000000
vn 1.000000 0.000000 0.000000
vn 1.000000 0.000000 0.000000
vn 1.000000 0.000000 0.000000
s off
g Atico2 Casa AticoTecho1
usemtl Atico:initialShadingGroup
f 89/101/181 90/102/182 92/103/183 91/104/184
f 91/104/185 92/103/186 94/105/187 93/106/188
f 93/106/189 94/105/190 96/107/191 95/108/192
f 95/108/193 96/107/194 90/109/195 89/110/196
f 90/102/197 96/111/198 94/112/199 92/103/200
f 95/113/201 89/101/202 91/104/203 93/114/204
