# This file uses centimeters as units for non-parametric coordinates.

mtllib Cocina2.mtl
g default
v 6126.983398 -1481.237427 -389.170532
v 6076.983398 -1481.237427 -389.170532
v 6126.983398 -709.219849 -389.170532
v 6076.983398 -709.219849 -389.170532
v 6126.983398 -709.219849 313.998444
v 6076.983398 -709.219849 313.998444
v 6126.983398 -1481.237427 313.998444
v 6076.983398 -1481.237427 313.998444
vt 0.375000 0.000000
vt 0.625000 0.000000
vt 0.625000 0.250000
vt 0.375000 0.250000
vt 0.875000 0.000000
vt 0.875000 0.250000
vt 0.125000 0.000000
vt 0.125000 0.250000
vn 0.000000 0.000000 -1.000000
vn 0.000000 0.000000 -1.000000
vn 0.000000 0.000000 -1.000000
vn 0.000000 0.000000 -1.000000
vn -1.000000 0.000000 -0.000000
vn -1.000000 0.000000 -0.000000
vn -1.000000 0.000000 -0.000000
vn -1.000000 0.000000 -0.000000
vn 1.000000 0.000000 0.000000
vn 1.000000 0.000000 0.000000
vn 1.000000 0.000000 0.000000
vn 1.000000 0.000000 0.000000
s off
g HabitacionespCube13 Cocina2 Casa
usemtl Habitaciones:initialShadingGroup
f 1/1/1 2/2/2 4/3/3 3/4/4
f 2/2/5 8/5/6 6/6/7 4/3/8
f 7/7/9 1/1/10 3/4/11 5/8/12
g default
v 5826.162598 -1481.237305 313.998444
v 5826.162598 -709.219849 313.998444
v 5826.162598 -709.219849 389.170685
v 5826.162598 -1481.237305 389.170685
v 6126.983398 -709.219849 389.170685
v 6126.983398 -1481.237305 389.170685
v 6126.983398 -1481.237305 313.998444
v 6126.983398 -709.219849 313.998444
vt 0.625000 0.000000
vt 0.625000 0.250000
vt 0.427751 0.750000
vt 0.427751 0.500000
vt 0.427751 0.250000
vt 0.427751 0.500000
vt 0.625000 0.500000
vt 0.625000 0.750000
vn -0.000000 0.000000 1.000000
vn -0.000000 0.000000 1.000000
vn -0.000000 0.000000 1.000000
vn -0.000000 0.000000 1.000000
vn 0.000000 0.000000 -1.000000
vn 0.000000 0.000000 -1.000000
vn 0.000000 0.000000 -1.000000
vn 0.000000 0.000000 -1.000000
vn 1.000000 0.000000 0.000000
vn 1.000000 0.000000 0.000000
vn 1.000000 0.000000 0.000000
vn 1.000000 0.000000 0.000000
s off
g Cocina2 Casa HabitacionespCube14
usemtl Habitaciones:initialShadingGroup
f 13/14/13 11/15/14 12/16/15 14/11/16
f 16/13/17 15/12/18 9/9/19 10/10/20
f 13/14/21 14/11/22 15/12/23 16/13/24
g default
v 6126.983398 -1531.237305 -389.170532
v 5826.162109 -1531.237305 -389.170532
v 6126.983398 -1481.237305 -389.170532
v 5826.162109 -1481.237305 -389.170532
v 6126.983398 -1481.237305 389.170685
v 5826.162109 -1481.237305 389.170685
v 6126.983398 -1531.237305 389.170685
v 5826.162109 -1531.237305 389.170685
vt 0.375000 0.000000
vt 0.625000 0.000000
vt 0.625000 0.250000
vt 0.375000 0.250000
vt 0.625000 0.500000
vt 0.375000 0.500000
vt 0.625000 0.750000
vt 0.375000 0.750000
vt 0.625000 1.000000
vt 0.375000 1.000000
vt 0.875000 0.000000
vt 0.875000 0.250000
vt 0.125000 0.000000
vt 0.125000 0.250000
vn 0.000000 0.000000 -1.000000
vn 0.000000 0.000000 -1.000000
vn 0.000000 0.000000 -1.000000
vn 0.000000 0.000000 -1.000000
vn 0.000000 1.000000 -0.000000
vn 0.000000 1.000000 -0.000000
vn 0.000000 1.000000 -0.000000
vn 0.000000 1.000000 -0.000000
vn -0.000000 0.000000 1.000000
vn -0.000000 0.000000 1.000000
vn -0.000000 0.000000 1.000000
vn -0.000000 0.000000 1.000000
vn 0.000000 -1.000000 0.000000
vn 0.000000 -1.000000 0.000000
vn 0.000000 -1.000000 0.000000
vn 0.000000 -1.000000 0.000000
vn -1.000000 0.000000 -0.000000
vn -1.000000 0.000000 -0.000000
vn -1.000000 0.000000 -0.000000
vn -1.000000 0.000000 -0.000000
vn 1.000000 0.000000 0.000000
vn 1.000000 0.000000 0.000000
vn 1.000000 0.000000 0.000000
vn 1.000000 0.000000 0.000000
s off
g Cocina2 Casa HabitacionespCube11
usemtl Habitaciones:initialShadingGroup
f 17/17/25 18/18/26 20/19/27 19/20/28
f 19/20/29 20/19/30 22/21/31 21/22/32
f 21/22/33 22/21/34 24/23/35 23/24/36
f 23/24/37 24/23/38 18/25/39 17/26/40
f 18/18/41 24/27/42 22/28/43 20/19/44
f 23/29/45 17/17/46 19/20/47 21/30/48
g default
v 5826.162598 -709.219849 -389.170532
v 5826.162598 -659.219849 -389.170532
v 5826.162598 -659.219849 389.170685
v 5826.162598 -709.219849 389.170685
v 6126.983398 -659.219849 389.170685
v 6126.983398 -659.219849 -389.170532
v 6126.983398 -709.219849 -389.170532
v 6126.983398 -709.219849 389.170685
vt 0.625000 0.000000
vt 0.625000 0.250000
vt 0.625000 0.500000
vt 0.625000 0.750000
vt 0.625000 1.000000
vt 0.602287 0.500000
vt 0.602287 0.250000
vt 0.602287 0.500000
vt 0.602287 0.750000
vn 0.000000 0.000000 -1.000000
vn 0.000000 0.000000 -1.000000
vn 0.000000 0.000000 -1.000000
vn 0.000000 0.000000 -1.000000
vn 0.000000 1.000000 -0.000000
vn 0.000000 1.000000 -0.000000
vn 0.000000 1.000000 -0.000000
vn 0.000000 1.000000 -0.000000
vn -0.000000 0.000000 1.000000
vn -0.000000 0.000000 1.000000
vn -0.000000 0.000000 1.000000
vn -0.000000 0.000000 1.000000
vn 0.000000 -1.000000 0.000000
vn 0.000000 -1.000000 0.000000
vn 0.000000 -1.000000 0.000000
vn 0.000000 -1.000000 0.000000
vn 1.000000 0.000000 0.000000
vn 1.000000 0.000000 0.000000
vn 1.000000 0.000000 0.000000
vn 1.000000 0.000000 0.000000
s off
g Cocina2 Casa pCube10Habitaciones
usemtl Habitaciones:initialShadingGroup
f 31/38/49 25/31/50 26/32/51 30/37/52
f 30/37/53 26/32/54 27/33/55 29/36/56
f 32/39/57 29/36/58 27/33/59 28/34/60
f 32/39/61 28/34/62 25/35/63 31/38/64
f 30/37/65 29/36/66 32/39/67 31/38/68
