# This file uses centimeters as units for non-parametric coordinates.

mtllib Cocina1.mtl
g default
v -6073.838379 -1481.237427 -389.170532
v -6123.838379 -1481.237427 -389.170532
v -6073.838867 -709.219849 -389.170532
v -6123.838867 -709.219849 -389.170532
v -6073.838379 -709.219849 313.998444
v -6123.838867 -709.219849 313.998444
v -6073.838867 -1481.237427 313.998444
v -6123.838867 -1481.237427 313.998444
vt 0.375000 0.000000
vt 0.625000 0.000000
vt 0.625000 0.250000
vt 0.375000 0.250000
vt 0.875000 0.000000
vt 0.875000 0.250000
vt 0.125000 0.000000
vt 0.125000 0.250000
vn 0.000000 0.000000 -1.000000
vn 0.000000 0.000000 -1.000000
vn 0.000000 0.000000 -1.000000
vn 0.000000 0.000000 -1.000000
vn -1.000000 0.000000 -0.000000
vn -1.000000 0.000000 -0.000000
vn -1.000000 0.000000 -0.000000
vn -1.000000 0.000000 -0.000000
vn 1.000000 0.000000 0.000000
vn 1.000000 0.000000 0.000000
vn 1.000000 0.000000 0.000000
vn 1.000000 0.000000 0.000000
s off
g HabitacionespCube13 Cocina1 Casa
usemtl Habitaciones:initialShadingGroup
f 1/1/1 2/2/2 4/3/3 3/4/4
f 2/2/5 8/5/6 6/6/7 4/3/8
f 7/7/9 1/1/10 3/4/11 5/8/12
g default
v -173.838226 -1481.237305 313.998444
v -6123.838867 -1481.237305 313.998444
v -173.838989 -709.219849 313.998444
v -6123.838867 -709.219849 313.998444
v -173.838226 -709.219849 389.170685
v -6123.838867 -709.219849 389.170685
v -173.837494 -1481.237305 389.170685
v -6123.838867 -1481.237305 389.170685
v -285.882385 -709.219849 389.170685
v -285.882019 -1481.237305 389.170685
v -285.882385 -1481.237305 313.998444
v -285.882385 -709.219849 313.998444
v -735.881592 -709.219849 389.170685
v -735.881775 -1481.237305 389.170685
v -735.881592 -1481.237305 313.998444
v -735.881592 -709.219849 313.998444
v -377.416992 -1175.638428 346.313507
v -377.416992 -772.329163 346.313507
v -644.347168 -1175.638428 346.313507
v -644.347168 -772.329163 346.313507
v -377.416992 -772.329102 389.170685
v -644.347168 -772.329102 389.170685
v -644.347168 -1175.638428 389.170685
v -377.416992 -1175.638428 389.170685
v -319.280426 -725.083923 313.998413
v -319.280426 -1231.858521 313.998413
v -702.483765 -1231.858521 313.998413
v -702.483765 -725.083923 313.998413
v -644.347168 -772.329102 374.428955
v -644.347168 -1175.638428 374.428955
v -644.347168 -1175.638428 361.055206
v -644.347168 -772.329163 361.055206
v -377.416992 -1175.638428 374.428955
v -377.416992 -772.329102 374.428955
v -377.416992 -772.329163 361.055206
v -377.416992 -1175.638428 361.055206
v -626.221619 -791.609070 374.428955
v -626.221619 -1156.358643 374.428955
v -626.221619 -1156.358643 361.055206
v -626.221619 -791.609070 361.055206
v -395.542145 -1156.358643 374.428955
v -395.542145 -791.609070 374.428955
v -395.542145 -791.609070 361.055206
v -395.542145 -1156.358643 361.055206
vt 0.375000 0.000000
vt 0.413243 0.000000
vt 0.413243 0.250000
vt 0.375000 0.250000
vt 0.413243 0.500000
vt 0.375000 0.500000
vt 0.413243 0.750000
vt 0.375000 0.750000
vt 0.625000 0.000000
vt 0.875000 0.000000
vt 0.875000 0.250000
vt 0.625000 0.250000
vt 0.413243 0.500000
vt 0.427751 0.500000
vt 0.427751 0.750000
vt 0.413243 0.750000
vt 0.427751 0.750000
vt 0.413243 0.250000
vt 0.413243 0.000000
vt 0.427751 0.000000
vt 0.427751 0.250000
vt 0.427751 0.250000
vt 0.427751 0.500000
vt 0.625000 0.500000
vt 0.625000 0.750000
vt 0.427751 0.000000
vt 0.413243 0.250000
vt 0.413243 0.000000
vt 0.427751 0.000000
vt 0.427751 0.250000
vt 0.427751 0.500000
vt 0.427751 0.750000
vt 0.427751 0.000000
vt 0.427751 0.250000
vt 0.413243 0.750000
vt 0.413243 0.500000
vt 0.413243 0.250000
vt 0.413243 0.000000
vt 0.427751 0.500000
vt 0.427751 0.750000
vt 0.427751 0.000000
vt 0.427751 0.250000
vt 0.413243 0.750000
vt 0.413243 0.500000
vt 0.413243 0.250000
vt 0.413243 0.000000
vn 0.000000 0.000000 -1.000000
vn 0.000000 0.000000 -1.000000
vn 0.000000 0.000000 -1.000000
vn 0.000000 0.000000 -1.000000
vn -0.000000 0.000000 1.000000
vn -0.000000 0.000000 1.000000
vn -0.000000 0.000000 1.000000
vn -0.000000 0.000000 1.000000
vn -1.000000 0.000000 0.000001
vn -1.000000 0.000000 0.000001
vn -1.000000 0.000000 0.000001
vn -1.000000 0.000000 0.000001
vn -0.000000 0.000000 1.000000
vn -0.000000 0.000000 1.000000
vn -0.000000 0.000000 1.000000
vn -0.000000 0.000000 1.000000
vn 0.000000 0.000000 -1.000000
vn 0.000000 0.000000 -1.000000
vn 0.000000 0.000000 -1.000000
vn 0.000000 0.000000 -1.000000
vn -0.201227 0.000000 -0.979545
vn -0.144947 0.000000 -0.989439
vn -0.485838 0.000000 -0.874049
vn -0.485838 0.000000 -0.874049
vn 0.000000 0.045814 -0.998950
vn 0.000000 0.045815 -0.998950
vn 0.000000 0.498338 -0.866983
vn 0.000000 0.498338 -0.866983
vn 0.144947 0.000000 -0.989439
vn 0.201228 0.000000 -0.979545
vn 0.485838 0.000000 -0.874049
vn 0.485838 0.000000 -0.874049
vn 0.000000 -0.264571 -0.964366
vn 0.000000 -0.264570 -0.964366
vn 0.000000 -0.564558 -0.825393
vn 0.000000 -0.564558 -0.825393
vn -0.000000 0.000000 1.000000
vn -0.000000 0.000000 1.000000
vn -0.000000 0.000000 1.000000
vn -0.000000 0.000000 1.000000
vn 0.000000 0.000000 1.000000
vn 0.000000 0.000000 1.000000
vn 0.000000 0.000000 1.000000
vn 0.000000 0.000000 1.000000
vn -0.000000 0.000000 1.000000
vn -0.000000 0.000000 1.000000
vn -0.000000 0.000000 1.000000
vn -0.000000 0.000000 1.000000
vn -0.000000 0.000000 1.000000
vn -0.000000 0.000000 1.000000
vn -0.000000 0.000000 1.000000
vn -0.000000 0.000000 1.000000
vn 0.000001 0.000000 -1.000000
vn 0.000001 0.000000 -1.000000
vn 0.000000 -0.000000 -1.000000
vn 0.000000 -0.000000 -1.000000
vn -0.000001 0.000000 -1.000000
vn -0.000001 0.000000 -1.000000
vn 0.000000 0.000002 -1.000000
vn 0.000000 0.000002 -1.000000
vn 1.000000 0.000000 0.000000
vn 1.000000 0.000000 0.000000
vn 1.000000 0.000000 0.000000
vn 1.000000 0.000000 0.000000
vn -1.000000 0.000000 -0.000000
vn -1.000000 0.000000 -0.000000
vn -1.000000 0.000000 -0.000000
vn -1.000000 0.000000 -0.000000
vn 0.000000 1.000000 -0.000000
vn 0.000000 1.000000 -0.000000
vn 0.000000 1.000000 -0.000000
vn 0.000000 1.000000 -0.000000
vn -0.000000 -1.000000 0.000008
vn -0.000000 -1.000000 0.000008
vn -0.000000 -1.000000 0.000008
vn -0.000000 -1.000000 0.000008
vn 1.000000 0.000000 0.000000
vn 1.000000 0.000000 0.000000
vn 1.000000 0.000000 0.000000
vn 1.000000 0.000000 0.000000
vn 1.000000 0.000000 0.000000
vn 1.000000 0.000000 0.000000
vn 1.000000 0.000000 0.000000
vn 1.000000 0.000000 0.000000
vn -1.000000 0.000000 -0.000000
vn -1.000000 0.000000 -0.000000
vn -1.000000 0.000000 -0.000000
vn -1.000000 0.000000 -0.000000
vn -1.000000 0.000000 -0.000000
vn -1.000000 0.000000 -0.000000
vn -1.000000 0.000000 -0.000000
vn -1.000000 0.000000 -0.000000
vn 0.000000 1.000000 -0.000000
vn 0.000000 1.000000 -0.000000
vn 0.000000 1.000000 -0.000000
vn 0.000000 1.000000 -0.000000
vn 0.000000 1.000000 -0.000000
vn 0.000000 1.000000 -0.000000
vn 0.000000 1.000000 -0.000000
vn 0.000000 1.000000 -0.000000
vn 0.000000 -1.000000 0.000000
vn 0.000000 -1.000000 0.000000
vn 0.000000 -1.000000 0.000000
vn 0.000000 -1.000000 0.000000
vn 0.000000 -1.000000 0.000000
vn 0.000000 -1.000000 0.000000
vn 0.000000 -1.000000 0.000000
vn 0.000000 -1.000000 0.000000
vn 0.000001 0.000000 1.000000
vn 0.000001 0.000000 1.000000
vn 0.000001 0.000000 1.000000
vn 0.000001 0.000000 1.000000
vn 0.000000 0.000000 -1.000000
vn 0.000000 0.000000 -1.000000
vn 0.000000 0.000000 -1.000000
vn 0.000000 0.000000 -1.000000
vn -0.000001 0.000000 1.000000
vn -0.000001 0.000000 1.000000
vn -0.000001 0.000000 1.000000
vn -0.000001 0.000000 1.000000
vn -0.000000 0.000000 -1.000000
vn -0.000000 0.000000 -1.000000
vn -0.000000 0.000000 -1.000000
vn -0.000000 0.000000 -1.000000
vn -0.000000 0.000000 1.000000
vn -0.000000 0.000000 1.000000
vn -0.000000 0.000000 1.000000
vn -0.000000 0.000000 1.000000
vn 0.000000 0.000000 -1.000000
vn 0.000000 0.000000 -1.000000
vn 0.000000 0.000000 -1.000000
vn 0.000000 0.000000 -1.000000
vn -0.000000 0.000000 1.000000
vn -0.000000 0.000000 1.000000
vn -0.000000 0.000000 1.000000
vn -0.000000 0.000000 1.000000
vn 0.000000 0.000000 -1.000000
vn 0.000000 0.000000 -1.000000
vn 0.000000 0.000000 -1.000000
vn 0.000000 0.000000 -1.000000
s off
g Cocina1 Casa HabitacionespCube14
usemtl Habitaciones:initialShadingGroup
f 9/9/13 19/10/14 20/11/15 11/12/16
f 13/14/17 17/13/18 18/15/19 15/16/20
f 10/17/21 16/18/22 14/19/23 12/20/24
f 21/31/25 14/32/26 16/33/27 22/25/28
f 24/30/29 23/34/30 10/17/31 12/20/32
s 1
f 33/35/33 34/36/34 25/27/35 26/26/36
s 2
f 34/36/37 35/37/38 27/28/39 25/27/40
s 3
f 35/37/41 36/38/42 28/29/43 27/28/44
s 4
f 36/38/45 33/35/46 26/26/47 28/29/48
s off
f 17/13/49 21/31/50 30/22/51 29/21/52
f 21/31/53 22/25/54 31/23/55 30/22/56
f 22/25/57 18/15/58 32/24/59 31/23/60
f 18/15/61 17/13/62 29/21/63 32/24/64
s 1
f 20/11/65 19/10/66 34/36/34 33/35/33
s 2
f 19/10/67 23/34/68 35/37/38 34/36/37
s 3
f 23/34/69 24/30/70 36/38/42 35/37/41
s 4
f 24/30/71 20/11/72 33/35/46 36/38/45
s off
f 45/47/73 46/48/74 47/49/75 48/50/76
f 49/51/77 50/52/78 51/53/79 52/54/80
f 46/48/81 49/51/82 52/54/83 47/49/84
f 50/52/85 45/47/86 48/50/87 51/53/88
f 30/22/89 31/23/90 38/40/91 37/39/92
f 27/28/93 28/29/94 40/42/95 39/41/96
f 32/24/97 29/21/98 42/44/99 41/43/100
f 26/26/101 25/27/102 44/46/103 43/45/104
f 31/23/105 32/24/106 41/43/107 38/40/108
f 25/27/109 27/28/110 39/41/111 44/46/112
f 29/21/113 30/22/114 37/39/115 42/44/116
f 28/29/117 26/26/118 43/45/119 40/42/120
f 37/39/121 38/40/122 46/48/123 45/47/124
f 39/41/125 40/42/126 48/50/127 47/49/128
f 41/43/129 42/44/130 50/52/131 49/51/132
f 43/45/133 44/46/134 52/54/135 51/53/136
f 38/40/137 41/43/138 49/51/139 46/48/140
f 44/46/141 39/41/142 47/49/143 52/54/144
f 42/44/145 37/39/146 45/47/147 50/52/148
f 40/42/149 43/45/150 51/53/151 48/50/152
g default
v -173.838425 -1531.237305 -389.170532
v -6123.838379 -1531.237305 -389.170532
v -173.838425 -1481.237305 -389.170532
v -6123.838379 -1481.237305 -389.170532
v -173.838425 -1481.237305 389.170685
v -6123.838379 -1481.237305 389.170685
v -173.838425 -1531.237305 389.170685
v -6123.838379 -1531.237305 389.170685
vt 0.375000 0.000000
vt 0.625000 0.000000
vt 0.625000 0.250000
vt 0.375000 0.250000
vt 0.625000 0.500000
vt 0.375000 0.500000
vt 0.625000 0.750000
vt 0.375000 0.750000
vt 0.625000 1.000000
vt 0.375000 1.000000
vt 0.875000 0.000000
vt 0.875000 0.250000
vt 0.125000 0.000000
vt 0.125000 0.250000
vn 0.000000 0.000000 -1.000000
vn 0.000000 0.000000 -1.000000
vn 0.000000 0.000000 -1.000000
vn 0.000000 0.000000 -1.000000
vn 0.000000 1.000000 -0.000000
vn 0.000000 1.000000 -0.000000
vn 0.000000 1.000000 -0.000000
vn 0.000000 1.000000 -0.000000
vn -0.000000 0.000000 1.000000
vn -0.000000 0.000000 1.000000
vn -0.000000 0.000000 1.000000
vn -0.000000 0.000000 1.000000
vn 0.000000 -1.000000 0.000000
vn 0.000000 -1.000000 0.000000
vn 0.000000 -1.000000 0.000000
vn 0.000000 -1.000000 0.000000
vn -1.000000 0.000000 -0.000000
vn -1.000000 0.000000 -0.000000
vn -1.000000 0.000000 -0.000000
vn -1.000000 0.000000 -0.000000
vn 1.000000 0.000000 0.000000
vn 1.000000 0.000000 0.000000
vn 1.000000 0.000000 0.000000
vn 1.000000 0.000000 0.000000
s off
g Cocina1 Casa HabitacionespCube11
usemtl Habitaciones:initialShadingGroup
f 53/55/153 54/56/154 56/57/155 55/58/156
f 55/58/157 56/57/158 58/59/159 57/60/160
f 57/60/161 58/59/162 60/61/163 59/62/164
f 59/62/165 60/61/166 54/63/167 53/64/168
f 54/56/169 60/65/170 58/66/171 56/57/172
f 59/67/173 53/55/174 55/58/175 57/68/176
g default
v -173.838226 -709.219849 -389.170532
v -6123.838379 -709.219849 -389.170532
v -173.838226 -659.219849 -389.170532
v -6123.838379 -659.219849 -389.170532
v -173.838226 -659.219849 389.170685
v -6123.838379 -659.219849 389.170685
v -173.838226 -709.219849 389.170685
v -6123.838379 -709.219849 389.170685
v -5285.361816 -659.219849 389.170685
v -5285.361816 -659.219849 -389.170532
v -5285.361816 -709.219849 -389.170532
v -5285.361816 -709.219849 389.170685
v -5723.210449 -659.219849 389.170685
v -5723.210449 -659.219849 -389.170532
v -5723.210449 -709.219849 -389.170532
v -5723.210449 -709.219849 389.170685
v -5570.103027 -659.219849 -102.899048
v -5446.672363 -659.219849 -102.899048
v -5570.103027 -659.219849 102.899208
v -5446.672363 -659.219849 102.899208
v -5570.103027 -709.219849 102.899208
v -5446.672363 -709.219849 102.899208
v -5570.103027 -709.219849 -102.899048
v -5446.672363 -709.219849 -102.899048
vt 0.375000 0.000000
vt 0.625000 0.000000
vt 0.625000 0.250000
vt 0.375000 0.250000
vt 0.625000 0.500000
vt 0.375000 0.500000
vt 0.625000 0.750000
vt 0.375000 0.750000
vt 0.625000 1.000000
vt 0.375000 1.000000
vt 0.875000 0.000000
vt 0.875000 0.250000
vt 0.125000 0.000000
vt 0.125000 0.250000
vt 0.584194 0.500000
vt 0.584194 0.250000
vt 0.584194 0.000000
vt 0.584194 1.000000
vt 0.584194 0.750000
vt 0.602287 0.500000
vt 0.602287 0.250000
vt 0.602287 0.000000
vt 0.602287 1.000000
vt 0.602287 0.750000
vt 0.584194 0.250000
vt 0.602287 0.250000
vt 0.602287 0.500000
vt 0.584194 0.500000
vt 0.584194 0.750000
vt 0.602287 0.750000
vt 0.602287 1.000000
vt 0.584194 1.000000
vn 0.000000 0.000000 -1.000000
vn 0.000000 0.000000 -1.000000
vn 0.000000 0.000000 -1.000000
vn 0.000000 0.000000 -1.000000
vn 0.000000 1.000000 -0.000000
vn 0.000000 1.000000 -0.000000
vn 0.000000 1.000000 -0.000000
vn 0.000000 1.000000 -0.000000
vn -0.000000 0.000000 1.000000
vn -0.000000 0.000000 1.000000
vn -0.000000 0.000000 1.000000
vn -0.000000 0.000000 1.000000
vn 0.000000 -1.000000 0.000000
vn 0.000000 -1.000000 0.000000
vn 0.000000 -1.000000 0.000000
vn 0.000000 -1.000000 0.000000
vn -1.000000 0.000000 -0.000000
vn -1.000000 0.000000 -0.000000
vn -1.000000 0.000000 -0.000000
vn -1.000000 0.000000 -0.000000
vn 1.000000 0.000000 0.000000
vn 1.000000 0.000000 0.000000
vn 1.000000 0.000000 0.000000
vn 1.000000 0.000000 0.000000
vn 0.000000 1.000000 -0.000000
vn 0.000000 1.000000 -0.000000
vn 0.000000 1.000000 -0.000000
vn 0.000000 1.000000 -0.000000
vn 0.000000 0.000000 -1.000000
vn 0.000000 0.000000 -1.000000
vn 0.000000 0.000000 -1.000000
vn 0.000000 0.000000 -1.000000
vn 0.000000 -1.000000 0.000000
vn 0.000000 -1.000000 0.000000
vn 0.000000 -1.000000 0.000000
vn 0.000000 -1.000000 0.000000
vn -0.000000 0.000000 1.000000
vn -0.000000 0.000000 1.000000
vn -0.000000 0.000000 1.000000
vn -0.000000 0.000000 1.000000
vn 0.000000 1.000000 -0.000000
vn 0.000000 1.000000 -0.000000
vn 0.000000 1.000000 -0.000000
vn 0.000000 1.000000 -0.000000
vn 0.000000 1.000000 -0.000000
vn 0.000000 1.000000 -0.000000
vn 0.000000 1.000000 -0.000000
vn 0.000000 1.000000 -0.000000
vn 0.000000 1.000000 -0.000000
vn 0.000000 1.000000 -0.000000
vn 0.000000 1.000000 -0.000000
vn 0.000000 1.000000 -0.000000
vn 0.000000 1.000000 -0.000000
vn 0.000000 1.000000 -0.000000
vn 0.000000 1.000000 -0.000000
vn 0.000000 1.000000 -0.000000
vn 0.000000 -1.000000 0.000000
vn 0.000000 -1.000000 0.000000
vn 0.000000 -1.000000 0.000000
vn 0.000000 -1.000000 0.000000
vn 0.000000 -1.000000 0.000000
vn 0.000000 -1.000000 0.000000
vn 0.000000 -1.000000 0.000000
vn 0.000000 -1.000000 0.000000
vn 0.000000 -1.000000 0.000000
vn 0.000000 -1.000000 0.000000
vn 0.000000 -1.000000 0.000000
vn 0.000000 -1.000000 0.000000
vn 0.000000 -1.000000 0.000000
vn 0.000000 -1.000000 0.000000
vn 0.000000 -1.000000 0.000000
vn 0.000000 -1.000000 0.000000
vn -0.000000 0.000000 1.000000
vn -0.000000 0.000000 1.000000
vn -0.000000 0.000000 1.000000
vn -0.000000 0.000000 1.000000
vn 1.000000 0.000000 0.000000
vn 1.000000 0.000000 0.000000
vn 1.000000 0.000000 0.000000
vn 1.000000 0.000000 0.000000
vn 0.000000 0.000000 -1.000000
vn 0.000000 0.000000 -1.000000
vn 0.000000 0.000000 -1.000000
vn 0.000000 0.000000 -1.000000
vn -1.000000 0.000000 -0.000000
vn -1.000000 0.000000 -0.000000
vn -1.000000 0.000000 -0.000000
vn -1.000000 0.000000 -0.000000
s 1
g Cocina1 Casa pCube10Habitaciones
usemtl Habitaciones:initialShadingGroup
f 75/90/177 62/70/178 64/71/179 74/89/180
s off
f 74/89/181 64/71/182 66/73/183 73/88/184
s 2
f 76/92/185 73/88/186 66/73/187 68/75/188
s off
f 76/92/189 68/75/190 62/77/191 75/91/192
f 62/70/193 68/79/194 66/80/195 64/71/196
f 67/81/197 61/69/198 63/72/199 65/82/200
f 63/72/201 70/84/202 69/83/203 65/74/204
s 1
f 61/69/205 71/85/206 70/84/207 63/72/208
s off
f 67/76/209 72/87/210 71/86/211 61/78/212
s 2
f 65/74/213 69/83/214 72/87/215 67/76/216
s 1
f 71/85/206 75/90/177 74/89/180 70/84/207
s 2
f 72/87/215 69/83/214 73/88/186 76/92/185
s off
f 70/84/217 74/89/218 77/94/219 78/93/220
f 74/89/221 73/88/222 79/95/223 77/94/224
f 73/88/225 69/83/226 80/96/227 79/95/228
f 69/83/229 70/84/230 78/93/231 80/96/232
f 72/87/233 76/92/234 81/98/235 82/97/236
f 76/92/237 75/91/238 83/99/239 81/98/240
f 75/91/241 71/86/242 84/100/243 83/99/244
f 71/86/245 72/87/246 82/97/247 84/100/248
f 78/93/249 77/94/250 83/99/251 84/100/252
f 77/94/253 79/95/254 81/98/255 83/99/256
f 79/95/257 80/96/258 82/97/259 81/98/260
f 80/96/261 78/93/262 84/100/263 82/97/264
g default
v -627.103821 -1031.588257 367.182037
v -627.103821 -1025.692871 367.182037
v -392.961456 -1031.588257 367.182037
v -392.961456 -1025.692871 367.182037
v -392.961456 -1031.588257 369.645355
v -392.961456 -1025.692871 369.645355
v -627.103821 -1031.588257 369.645355
v -627.103821 -1025.692871 369.645355
vt 0.375000 0.000000
vt 0.625000 0.000000
vt 0.375000 0.250000
vt 0.625000 0.250000
vt 0.375000 0.500000
vt 0.625000 0.500000
vt 0.375000 0.750000
vt 0.625000 0.750000
vt 0.375000 1.000000
vt 0.625000 1.000000
vt 0.875000 0.000000
vt 0.875000 0.250000
vt 0.125000 0.000000
vt 0.125000 0.250000
vn 0.000000 0.000000 -1.000000
vn 0.000000 0.000000 -1.000000
vn 0.000000 0.000000 -1.000000
vn 0.000000 0.000000 -1.000000
vn 1.000000 0.000000 0.000000
vn 1.000000 0.000000 0.000000
vn 1.000000 0.000000 0.000000
vn 1.000000 0.000000 0.000000
vn -0.000000 0.000000 1.000000
vn -0.000000 0.000000 1.000000
vn -0.000000 0.000000 1.000000
vn -0.000000 0.000000 1.000000
vn -1.000000 0.000000 -0.000000
vn -1.000000 0.000000 -0.000000
vn -1.000000 0.000000 -0.000000
vn -1.000000 0.000000 -0.000000
vn 0.000000 1.000000 -0.000000
vn 0.000000 1.000000 -0.000000
vn 0.000000 1.000000 -0.000000
vn 0.000000 1.000000 -0.000000
vn 0.000000 -1.000000 0.000000
vn 0.000000 -1.000000 0.000000
vn 0.000000 -1.000000 0.000000
vn 0.000000 -1.000000 0.000000
s off
g Cocina1 Casa pCube22
usemtl initialShadingGroup
f 85/101/265 86/102/266 88/104/267 87/103/268
f 87/103/269 88/104/270 90/106/271 89/105/272
f 89/105/273 90/106/274 92/108/275 91/107/276
f 91/107/277 92/108/278 86/110/279 85/109/280
f 86/102/281 92/111/282 90/112/283 88/104/284
f 91/113/285 85/101/286 87/103/287 89/114/288
g default
v -627.103821 -899.812683 367.182037
v -627.103821 -887.179443 367.182037
v -392.961456 -899.812683 367.182037
v -392.961456 -887.179504 367.182037
v -392.961456 -899.812683 369.645355
v -392.961456 -887.179504 369.645355
v -627.103821 -899.812683 369.645355
v -627.103821 -887.179443 369.645355
vt 0.375000 0.000000
vt 0.625000 0.000000
vt 0.375000 0.250000
vt 0.625000 0.250000
vt 0.375000 0.500000
vt 0.625000 0.500000
vt 0.375000 0.750000
vt 0.625000 0.750000
vt 0.375000 1.000000
vt 0.625000 1.000000
vt 0.875000 0.000000
vt 0.875000 0.250000
vt 0.125000 0.000000
vt 0.125000 0.250000
vn 0.000000 0.000000 -1.000000
vn 0.000000 0.000000 -1.000000
vn 0.000000 0.000000 -1.000000
vn 0.000000 0.000000 -1.000000
vn 1.000000 0.000000 0.000000
vn 1.000000 0.000000 0.000000
vn 1.000000 0.000000 0.000000
vn 1.000000 0.000000 0.000000
vn -0.000000 0.000000 1.000000
vn -0.000000 0.000000 1.000000
vn -0.000000 0.000000 1.000000
vn -0.000000 0.000000 1.000000
vn -1.000000 0.000000 -0.000000
vn -1.000000 0.000000 -0.000000
vn -1.000000 0.000000 -0.000000
vn -1.000000 0.000000 -0.000000
vn 0.000000 1.000000 -0.000000
vn 0.000000 1.000000 -0.000000
vn 0.000000 1.000000 -0.000000
vn 0.000000 1.000000 -0.000000
vn 0.000000 -1.000000 0.000000
vn 0.000000 -1.000000 0.000000
vn 0.000000 -1.000000 0.000000
vn 0.000000 -1.000000 0.000000
s off
g Cocina1 Casa pCube21
usemtl initialShadingGroup
f 93/115/289 94/116/290 96/118/291 95/117/292
f 95/117/293 96/118/294 98/120/295 97/119/296
f 97/119/297 98/120/298 100/122/299 99/121/300
f 99/121/301 100/122/302 94/124/303 93/123/304
f 94/116/305 100/125/306 98/126/307 96/118/308
f 99/127/309 93/115/310 95/117/311 97/128/312
g default
v -503.633972 -1160.501953 367.182037
v -516.431213 -1160.501953 367.182037
v -503.633972 -784.201721 367.182037
v -516.431213 -784.201721 367.182037
v -503.633972 -784.201721 369.645355
v -516.431213 -784.201721 369.645355
v -503.633972 -1160.501953 369.645355
v -516.431213 -1160.501953 369.645355
vt 0.375000 0.000000
vt 0.625000 0.000000
vt 0.375000 0.250000
vt 0.625000 0.250000
vt 0.375000 0.500000
vt 0.625000 0.500000
vt 0.375000 0.750000
vt 0.625000 0.750000
vt 0.375000 1.000000
vt 0.625000 1.000000
vt 0.875000 0.000000
vt 0.875000 0.250000
vt 0.125000 0.000000
vt 0.125000 0.250000
vn 0.000000 0.000000 -1.000000
vn 0.000000 0.000000 -1.000000
vn 0.000000 0.000000 -1.000000
vn 0.000000 0.000000 -1.000000
vn 0.000000 1.000000 -0.000000
vn 0.000000 1.000000 -0.000000
vn 0.000000 1.000000 -0.000000
vn 0.000000 1.000000 -0.000000
vn -0.000000 0.000000 1.000000
vn -0.000000 0.000000 1.000000
vn -0.000000 0.000000 1.000000
vn -0.000000 0.000000 1.000000
vn 0.000000 -1.000000 0.000000
vn 0.000000 -1.000000 0.000000
vn 0.000000 -1.000000 0.000000
vn 0.000000 -1.000000 0.000000
vn -1.000000 0.000000 -0.000000
vn -1.000000 0.000000 -0.000000
vn -1.000000 0.000000 -0.000000
vn -1.000000 0.000000 -0.000000
vn 1.000000 0.000000 0.000000
vn 1.000000 0.000000 0.000000
vn 1.000000 0.000000 0.000000
vn 1.000000 0.000000 0.000000
s off
g Cocina1 Casa pCube20
usemtl initialShadingGroup
f 101/129/313 102/130/314 104/132/315 103/131/316
f 103/131/317 104/132/318 106/134/319 105/133/320
f 105/133/321 106/134/322 108/136/323 107/135/324
f 107/135/325 108/136/326 102/138/327 101/137/328
f 102/130/329 108/139/330 106/140/331 104/132/332
f 107/141/333 101/129/334 103/131/335 105/142/336
